<svg width="14" height="14" viewBox="0 0 14 14" fill="none" xmlns="http://www.w3.org/2000/svg">
<path fill-rule="evenodd" clip-rule="evenodd" d="M10.4125 9.59024C10.4677 9.64501 10.4988 9.71955 10.4988 9.79732C10.4988 9.87509 10.4677 9.94964 10.4125 10.0044L10.0042 10.4127C9.9494 10.468 9.87485 10.499 9.79708 10.499C9.71931 10.499 9.64476 10.468 9.59 10.4127L7 7.82274L4.41 10.4127C4.35523 10.468 4.28069 10.499 4.20292 10.499C4.12515 10.499 4.0506 10.468 3.99583 10.4127L3.5875 10.0044C3.53228 9.94964 3.50122 9.87509 3.50122 9.79732C3.50122 9.71955 3.53228 9.64501 3.5875 9.59024L6.1775 7.00024L3.5875 4.41024C3.53228 4.35547 3.50122 4.28093 3.50122 4.20316C3.50122 4.12539 3.53228 4.05084 3.5875 3.99607L3.99583 3.58774C4.0506 3.53252 4.12515 3.50146 4.20292 3.50146C4.28069 3.50146 4.35523 3.53252 4.41 3.58774L7 6.17774L9.59 3.58774C9.64476 3.53252 9.71931 3.50146 9.79708 3.50146C9.87485 3.50146 9.9494 3.53252 10.0042 3.58774L10.4125 3.99607C10.4677 4.05084 10.4988 4.12539 10.4988 4.20316C10.4988 4.28093 10.4677 4.35547 10.4125 4.41024L7.8225 7.00024L10.4125 9.59024Z" fill="#191920"/>
</svg>
